<svg width="277" height="171" viewBox="0 0 277 171" fill="none" xmlns="http://www.w3.org/2000/svg">
<rect width="277" height="170.027" fill="#003940"/>
<line x1="128.5" y1="72.5" x2="148.5" y2="72.5" stroke="#D6945C"/>
<path d="M128.83 67.0805L128.83 67.0806C131.372 69.8792 134.589 71.6828 138.5 72.4897C142.411 71.6828 145.628 69.8792 148.171 67.0806L128.83 67.0805ZM128.83 67.0805C126.264 64.2574 125 61.1487 125 57.74M128.83 67.0805L125 57.74M125 57.74V49.572M125 57.74V49.572M125 49.572L138.5 45.522L152 49.572V57.74C152 61.1487 150.736 64.2574 148.171 67.0805L125 49.572ZM138.377 70.5446L138.5 70.5759L138.623 70.5446C141.753 69.7501 144.352 68.1561 146.404 65.7657C148.459 63.3727 149.5 60.6926 149.5 57.74V51.125V50.753L149.144 50.6461L138.644 47.4961L138.5 47.453L138.356 47.4961L127.856 50.6461L127.5 50.753V51.125V57.74C127.5 60.6926 128.541 63.3727 130.596 65.7657C132.648 68.1561 135.247 69.7501 138.377 70.5446Z" fill="#003940" stroke="#D6945C"/>
<path d="M138.75 54.3604C139.387 54.136 139.898 53.6274 140.122 52.9917H142.5L140.25 58.2271C140.25 59.4687 141.427 60.4709 142.875 60.4709C144.323 60.4709 145.5 59.4687 145.5 58.2271L143.25 52.9917H144.75V51.4958H140.122C139.815 50.6208 138.983 50 138 50C137.017 50 136.185 50.6208 135.878 51.4958H131.25V52.9917H132.75L130.5 58.2271C130.5 59.4687 131.678 60.4709 133.125 60.4709C134.572 60.4709 135.75 59.4687 135.75 58.2271L133.5 52.9917H135.878C136.102 53.6274 136.613 54.136 137.25 54.3604V62.7147H130.5V64.2105H145.5V62.7147H138.75V54.3604ZM144.278 58.2271H141.472L142.875 54.9662L144.278 58.2271ZM134.528 58.2271H131.723L133.125 54.9662L134.528 58.2271ZM138 52.9917C137.588 52.9917 137.25 52.6551 137.25 52.2438C137.25 51.8324 137.588 51.4958 138 51.4958C138.412 51.4958 138.75 51.8324 138.75 52.2438C138.75 52.6551 138.412 52.9917 138 52.9917Z" fill="#D6945C"/>
<path d="M54.6945 85.56C54.6945 86.7333 54.3011 87.68 53.5145 88.4C52.7145 89.12 51.6678 89.48 50.3745 89.48H46.8945V93.94C46.8945 94.42 47.0078 94.7533 47.2345 94.94C47.5411 95.1267 48.0811 95.22 48.8545 95.22V95.86H43.7745V95.22C44.4678 95.22 44.9678 95.1267 45.2745 94.94C45.5011 94.7533 45.6145 94.42 45.6145 93.94V83.74C45.6145 83.5667 45.5878 83.4333 45.5345 83.34C45.4678 83.1667 45.3811 83.0267 45.2745 82.92C45.0211 82.7067 44.5211 82.6 43.7745 82.6V81.92H50.5145C51.6878 81.92 52.6745 82.24 53.4745 82.88C54.2878 83.5333 54.6945 84.4267 54.6945 85.56ZM53.3145 85.56C53.3145 84.68 53.0011 83.9667 52.3745 83.42C51.7478 82.9133 51.0011 82.66 50.1345 82.66H48.8145C48.7078 82.66 48.5945 82.6667 48.4745 82.68C48.3678 82.68 48.2611 82.68 48.1545 82.68C47.8611 82.68 47.6011 82.7133 47.3745 82.78C47.1878 82.8467 47.0611 82.96 46.9945 83.12C46.9278 83.2667 46.8945 83.4667 46.8945 83.72V88.7H50.1145C50.6078 88.7 51.0478 88.6267 51.4345 88.48C51.8345 88.32 52.1745 88.1067 52.4545 87.84C53.0278 87.2667 53.3145 86.5067 53.3145 85.56ZM68.9885 95.86H64.0085V95.18C64.6085 95.18 65.0418 95.14 65.3085 95.06C65.5885 94.98 65.7618 94.86 65.8285 94.7C65.8418 94.6867 65.8485 94.6467 65.8485 94.58C65.8485 94.5133 65.8352 94.4467 65.8085 94.38C65.7818 94.3 65.7552 94.22 65.7285 94.14C65.6752 94.0333 65.6218 93.9267 65.5685 93.82C65.5285 93.7 65.4818 93.58 65.4285 93.46C65.2818 93.02 65.1285 92.5867 64.9685 92.16C64.8085 91.7333 64.6552 91.3067 64.5085 90.88H59.0285C58.8685 91.36 58.7018 91.84 58.5285 92.32C58.3685 92.8 58.2085 93.2867 58.0485 93.78C57.9818 93.9133 57.9352 94.04 57.9085 94.16C57.8952 94.2667 57.8885 94.3667 57.8885 94.46C57.8885 94.62 57.9218 94.7333 57.9885 94.8C58.1085 95.0533 58.6552 95.18 59.6285 95.18V95.86H55.3285V95.18C55.6752 95.18 55.9552 95.1333 56.1685 95.04C56.3952 94.96 56.6018 94.8067 56.7885 94.58C56.8818 94.46 56.9685 94.3067 57.0485 94.12C57.1285 93.9333 57.2152 93.7267 57.3085 93.5C57.3885 93.2733 57.5285 92.8667 57.7285 92.28C57.9418 91.6933 58.1818 91.0133 58.4485 90.24C58.7152 89.4667 59.0018 88.6533 59.3085 87.8C59.6152 86.9467 59.9018 86.1333 60.1685 85.36C60.4352 84.5867 60.6685 83.9067 60.8685 83.32C61.0818 82.7333 61.2285 82.3267 61.3085 82.1C61.4818 82.0067 61.6552 81.92 61.8285 81.84C62.0018 81.7467 62.1752 81.6533 62.3485 81.56C63.1485 83.64 63.9352 85.7 64.7085 87.74C65.4818 89.7667 66.2685 91.82 67.0685 93.9C67.2418 94.3533 67.4485 94.68 67.6885 94.88C67.9685 95.08 68.4018 95.18 68.9885 95.18V95.86ZM64.2485 90.08C63.8218 88.9467 63.3885 87.8133 62.9485 86.68C62.5218 85.5467 62.0952 84.4133 61.6685 83.28C61.2685 84.4133 60.8685 85.5467 60.4685 86.68C60.0818 87.8133 59.6885 88.9467 59.2885 90.08H64.2485ZM80.9352 92.4L79.5552 95.88H69.7352V95.22C70.4152 95.22 70.9086 95.12 71.2152 94.92C71.4419 94.76 71.5552 94.48 71.5552 94.08V83.7C71.5552 83.26 71.4486 82.96 71.2352 82.8C70.9819 82.6267 70.4819 82.54 69.7352 82.54V81.9H74.7952V82.54C73.9152 82.54 73.3686 82.6267 73.1552 82.8C72.9419 82.9733 72.8352 83.2733 72.8352 83.7V94.1C72.8352 94.5 72.9219 94.78 73.0952 94.94C73.2952 95.1 73.6286 95.18 74.0952 95.18H76.3152C77.2219 95.18 77.9819 94.9333 78.5952 94.44C79.2352 93.9867 79.8486 93.22 80.4352 92.14L80.9352 92.4ZM93.2204 92.4L91.8404 95.88H82.0204V95.22C82.7004 95.22 83.1937 95.12 83.5004 94.92C83.7271 94.76 83.8404 94.48 83.8404 94.08V83.7C83.8404 83.26 83.7337 82.96 83.5204 82.8C83.2671 82.6267 82.7671 82.54 82.0204 82.54V81.9H87.0804V82.54C86.2004 82.54 85.6537 82.6267 85.4404 82.8C85.2271 82.9733 85.1204 83.2733 85.1204 83.7V94.1C85.1204 94.5 85.2071 94.78 85.3804 94.94C85.5804 95.1 85.9137 95.18 86.3804 95.18H88.6004C89.5071 95.18 90.2671 94.9333 90.8804 94.44C91.5204 93.9867 92.1337 93.22 92.7204 92.14L93.2204 92.4ZM107.446 95.86H102.466V95.18C103.066 95.18 103.499 95.14 103.766 95.06C104.046 94.98 104.219 94.86 104.286 94.7C104.299 94.6867 104.306 94.6467 104.306 94.58C104.306 94.5133 104.292 94.4467 104.266 94.38C104.239 94.3 104.212 94.22 104.186 94.14C104.132 94.0333 104.079 93.9267 104.026 93.82C103.986 93.7 103.939 93.58 103.886 93.46C103.739 93.02 103.586 92.5867 103.426 92.16C103.266 91.7333 103.112 91.3067 102.966 90.88H97.4855C97.3255 91.36 97.1589 91.84 96.9855 92.32C96.8255 92.8 96.6655 93.2867 96.5055 93.78C96.4389 93.9133 96.3922 94.04 96.3655 94.16C96.3522 94.2667 96.3455 94.3667 96.3455 94.46C96.3455 94.62 96.3789 94.7333 96.4455 94.8C96.5655 95.0533 97.1122 95.18 98.0855 95.18V95.86H93.7855V95.18C94.1322 95.18 94.4122 95.1333 94.6255 95.04C94.8522 94.96 95.0589 94.8067 95.2455 94.58C95.3389 94.46 95.4255 94.3067 95.5055 94.12C95.5855 93.9333 95.6722 93.7267 95.7655 93.5C95.8455 93.2733 95.9855 92.8667 96.1855 92.28C96.3989 91.6933 96.6389 91.0133 96.9055 90.24C97.1722 89.4667 97.4589 88.6533 97.7655 87.8C98.0722 86.9467 98.3589 86.1333 98.6255 85.36C98.8922 84.5867 99.1255 83.9067 99.3255 83.32C99.5389 82.7333 99.6855 82.3267 99.7655 82.1C99.9389 82.0067 100.112 81.92 100.286 81.84C100.459 81.7467 100.632 81.6533 100.806 81.56C101.606 83.64 102.392 85.7 103.166 87.74C103.939 89.7667 104.726 91.82 105.526 93.9C105.699 94.3533 105.906 94.68 106.146 94.88C106.426 95.08 106.859 95.18 107.446 95.18V95.86ZM102.706 90.08C102.279 88.9467 101.846 87.8133 101.406 86.68C100.979 85.5467 100.552 84.4133 100.126 83.28C99.7255 84.4133 99.3255 85.5467 98.9255 86.68C98.5389 87.8133 98.1455 88.9467 97.7455 90.08H102.706ZM120.112 95.86H117.512C116.899 94.7267 116.286 93.6133 115.672 92.52C115.059 91.4133 114.446 90.2933 113.832 89.16H111.212V93.96C111.212 94.44 111.332 94.7667 111.572 94.94C111.879 95.1267 112.366 95.22 113.032 95.22V95.86H108.092V95.22C108.826 95.22 109.326 95.1267 109.592 94.94C109.832 94.74 109.952 94.42 109.952 93.98V83.74C109.952 83.3667 109.826 83.0867 109.572 82.9C109.319 82.7 108.826 82.6 108.092 82.6V81.92H114.252C117.306 81.92 118.832 83.1133 118.832 85.5C118.832 86.3533 118.626 87.0667 118.212 87.64C117.599 88.4533 116.592 88.94 115.192 89.1C115.699 89.9933 116.199 90.88 116.692 91.76C117.186 92.64 117.686 93.5267 118.192 94.42C118.366 94.7133 118.592 94.92 118.872 95.04C119.166 95.16 119.579 95.22 120.112 95.22V95.86ZM117.472 85.46C117.472 84.5933 117.186 83.9133 116.612 83.42C116.026 82.9133 115.246 82.66 114.272 82.66H112.512C112.019 82.66 111.686 82.74 111.512 82.9C111.312 83.0867 111.212 83.36 111.212 83.72V88.38H114.512C115.379 88.38 116.086 88.12 116.632 87.6C117.192 87.04 117.472 86.3267 117.472 85.46ZM132.084 92.18C132.15 92.22 132.224 92.26 132.304 92.3C132.384 92.34 132.457 92.38 132.524 92.42C132.297 93.02 132.077 93.6067 131.864 94.18C131.664 94.74 131.45 95.3 131.224 95.86H120.924V95.22C121.537 95.22 121.984 95.12 122.264 94.92C122.49 94.72 122.604 94.42 122.604 94.02V83.74C122.604 83.5933 122.584 83.4667 122.544 83.36C122.477 83.1867 122.397 83.0467 122.304 82.94C122.037 82.7 121.577 82.58 120.924 82.58V81.92H130.764C130.99 82.4933 131.21 83.06 131.424 83.62C131.65 84.18 131.877 84.7467 132.104 85.32C132.037 85.36 131.97 85.4067 131.904 85.46C131.837 85.5 131.77 85.5333 131.704 85.56C131.424 85 131.11 84.54 130.764 84.18C130.417 83.82 130.097 83.54 129.804 83.34C129.097 82.86 128.277 82.62 127.344 82.62H125.224C124.797 82.62 124.45 82.7133 124.184 82.9C123.984 83.06 123.884 83.34 123.884 83.74V88.24H126.884C127.524 88.24 127.964 88.1 128.204 87.82C128.51 87.4733 128.664 86.82 128.664 85.86H129.264V91.4H128.664C128.664 90.3733 128.51 89.7067 128.204 89.4C127.964 89.12 127.524 88.98 126.884 88.98H123.884V94.04C123.884 94.4533 123.984 94.7467 124.184 94.92C124.317 95.0267 124.47 95.0933 124.644 95.12C124.83 95.16 125.037 95.18 125.264 95.18H127.564C128.617 95.18 129.437 94.9867 130.024 94.6C130.37 94.3733 130.71 94.0533 131.044 93.64C131.39 93.2267 131.737 92.74 132.084 92.18ZM143.92 92.28C143.92 93.5067 143.506 94.46 142.68 95.14C141.893 95.8467 140.826 96.2 139.48 96.2C139.026 96.2 138.533 96.1467 138 96.04C137.466 95.9333 136.966 95.78 136.5 95.58C136.273 95.6467 136.046 95.72 135.82 95.8C135.606 95.88 135.406 95.9733 135.22 96.08C134.98 95.44 134.733 94.8133 134.48 94.2C134.24 93.5867 134 92.96 133.76 92.32C133.853 92.2667 133.94 92.22 134.02 92.18C134.1 92.1267 134.186 92.08 134.28 92.04C134.933 93.0933 135.566 93.8467 136.18 94.3C136.38 94.46 136.613 94.6067 136.88 94.74C137.16 94.8733 137.446 94.9867 137.74 95.08C138.033 95.1867 138.326 95.2667 138.62 95.32C138.913 95.3733 139.18 95.4 139.42 95.4C139.926 95.4 140.38 95.3333 140.78 95.2C141.18 95.0667 141.513 94.88 141.78 94.64C142.34 94.12 142.62 93.4333 142.62 92.58C142.62 92.26 142.546 91.9467 142.4 91.64C142.253 91.32 142.06 91.06 141.82 90.86C141.286 90.4333 140.24 89.9533 138.68 89.42C137.44 88.98 136.46 88.4667 135.74 87.88C134.78 87.1467 134.3 86.2533 134.3 85.2C134.3 84.12 134.686 83.2533 135.46 82.6C136.206 81.9467 137.18 81.62 138.38 81.62C138.953 81.62 139.513 81.7 140.06 81.86C140.206 81.9133 140.346 81.9667 140.48 82.02C140.626 82.0733 140.76 82.1267 140.88 82.18L142.08 81.78C142.32 82.3933 142.56 83 142.8 83.6C143.04 84.2 143.28 84.8067 143.52 85.42C143.373 85.4867 143.226 85.56 143.08 85.64C142.52 84.68 141.88 83.92 141.16 83.36C140.293 82.72 139.36 82.4 138.36 82.4C138.013 82.4 137.693 82.4533 137.4 82.56C137.106 82.6533 136.84 82.78 136.6 82.94C136.266 83.1667 136.006 83.4533 135.82 83.8C135.633 84.1467 135.54 84.5533 135.54 85.02C135.54 85.78 135.933 86.4133 136.72 86.92C137.12 87.16 137.506 87.3667 137.88 87.54C138.253 87.7 138.733 87.8733 139.32 88.06C140.133 88.3267 140.82 88.6 141.38 88.88C141.94 89.16 142.386 89.4333 142.72 89.7C143.52 90.34 143.92 91.2 143.92 92.28ZM161.667 85.56C161.667 86.7333 161.274 87.68 160.487 88.4C159.687 89.12 158.64 89.48 157.347 89.48H153.867V93.94C153.867 94.42 153.98 94.7533 154.207 94.94C154.514 95.1267 155.054 95.22 155.827 95.22V95.86H150.747V95.22C151.44 95.22 151.94 95.1267 152.247 94.94C152.474 94.7533 152.587 94.42 152.587 93.94V83.74C152.587 83.5667 152.56 83.4333 152.507 83.34C152.44 83.1667 152.354 83.0267 152.247 82.92C151.994 82.7067 151.494 82.6 150.747 82.6V81.92H157.487C158.66 81.92 159.647 82.24 160.447 82.88C161.26 83.5333 161.667 84.4267 161.667 85.56ZM160.287 85.56C160.287 84.68 159.974 83.9667 159.347 83.42C158.72 82.9133 157.974 82.66 157.107 82.66H155.787C155.68 82.66 155.567 82.6667 155.447 82.68C155.34 82.68 155.234 82.68 155.127 82.68C154.834 82.68 154.574 82.7133 154.347 82.78C154.16 82.8467 154.034 82.96 153.967 83.12C153.9 83.2667 153.867 83.4667 153.867 83.72V88.7H157.087C157.58 88.7 158.02 88.6267 158.407 88.48C158.807 88.32 159.147 88.1067 159.427 87.84C160 87.2667 160.287 86.5067 160.287 85.56ZM173.861 92.18C173.928 92.22 174.001 92.26 174.081 92.3C174.161 92.34 174.235 92.38 174.301 92.42C174.075 93.02 173.855 93.6067 173.641 94.18C173.441 94.74 173.228 95.3 173.001 95.86H162.701V95.22C163.315 95.22 163.761 95.12 164.041 94.92C164.268 94.72 164.381 94.42 164.381 94.02V83.74C164.381 83.5933 164.361 83.4667 164.321 83.36C164.255 83.1867 164.175 83.0467 164.081 82.94C163.815 82.7 163.355 82.58 162.701 82.58V81.92H172.541C172.768 82.4933 172.988 83.06 173.201 83.62C173.428 84.18 173.655 84.7467 173.881 85.32C173.815 85.36 173.748 85.4067 173.681 85.46C173.615 85.5 173.548 85.5333 173.481 85.56C173.201 85 172.888 84.54 172.541 84.18C172.195 83.82 171.875 83.54 171.581 83.34C170.875 82.86 170.055 82.62 169.121 82.62H167.001C166.575 82.62 166.228 82.7133 165.961 82.9C165.761 83.06 165.661 83.34 165.661 83.74V88.24H168.661C169.301 88.24 169.741 88.1 169.981 87.82C170.288 87.4733 170.441 86.82 170.441 85.86H171.041V91.4H170.441C170.441 90.3733 170.288 89.7067 169.981 89.4C169.741 89.12 169.301 88.98 168.661 88.98H165.661V94.04C165.661 94.4533 165.761 94.7467 165.961 94.92C166.095 95.0267 166.248 95.0933 166.421 95.12C166.608 95.16 166.815 95.18 167.041 95.18H169.341C170.395 95.18 171.215 94.9867 171.801 94.6C172.148 94.3733 172.488 94.0533 172.821 93.64C173.168 93.2267 173.515 92.74 173.861 92.18ZM187.417 95.86H184.817C184.204 94.7267 183.59 93.6133 182.977 92.52C182.364 91.4133 181.75 90.2933 181.137 89.16H178.517V93.96C178.517 94.44 178.637 94.7667 178.877 94.94C179.184 95.1267 179.67 95.22 180.337 95.22V95.86H175.397V95.22C176.13 95.22 176.63 95.1267 176.897 94.94C177.137 94.74 177.257 94.42 177.257 93.98V83.74C177.257 83.3667 177.13 83.0867 176.877 82.9C176.624 82.7 176.13 82.6 175.397 82.6V81.92H181.557C184.61 81.92 186.137 83.1133 186.137 85.5C186.137 86.3533 185.93 87.0667 185.517 87.64C184.904 88.4533 183.897 88.94 182.497 89.1C183.004 89.9933 183.504 90.88 183.997 91.76C184.49 92.64 184.99 93.5267 185.497 94.42C185.67 94.7133 185.897 94.92 186.177 95.04C186.47 95.16 186.884 95.22 187.417 95.22V95.86ZM184.777 85.46C184.777 84.5933 184.49 83.9133 183.917 83.42C183.33 82.9133 182.55 82.66 181.577 82.66H179.817C179.324 82.66 178.99 82.74 178.817 82.9C178.617 83.0867 178.517 83.36 178.517 83.72V88.38H181.817C182.684 88.38 183.39 88.12 183.937 87.6C184.497 87.04 184.777 86.3267 184.777 85.46ZM199.389 92.18C199.455 92.22 199.529 92.26 199.609 92.3C199.689 92.34 199.762 92.38 199.829 92.42C199.602 93.02 199.382 93.6067 199.169 94.18C198.969 94.74 198.755 95.3 198.529 95.86H188.229V95.22C188.842 95.22 189.289 95.12 189.569 94.92C189.795 94.72 189.909 94.42 189.909 94.02V83.74C189.909 83.5933 189.889 83.4667 189.849 83.36C189.782 83.1867 189.702 83.0467 189.609 82.94C189.342 82.7 188.882 82.58 188.229 82.58V81.92H198.069C198.295 82.4933 198.515 83.06 198.729 83.62C198.955 84.18 199.182 84.7467 199.409 85.32C199.342 85.36 199.275 85.4067 199.209 85.46C199.142 85.5 199.075 85.5333 199.009 85.56C198.729 85 198.415 84.54 198.069 84.18C197.722 83.82 197.402 83.54 197.109 83.34C196.402 82.86 195.582 82.62 194.649 82.62H192.529C192.102 82.62 191.755 82.7133 191.489 82.9C191.289 83.06 191.189 83.34 191.189 83.74V88.24H194.189C194.829 88.24 195.269 88.1 195.509 87.82C195.815 87.4733 195.969 86.82 195.969 85.86H196.569V91.4H195.969C195.969 90.3733 195.815 89.7067 195.509 89.4C195.269 89.12 194.829 88.98 194.189 88.98H191.189V94.04C191.189 94.4533 191.289 94.7467 191.489 94.92C191.622 95.0267 191.775 95.0933 191.949 95.12C192.135 95.16 192.342 95.18 192.569 95.18H194.869C195.922 95.18 196.742 94.9867 197.329 94.6C197.675 94.3733 198.015 94.0533 198.349 93.64C198.695 93.2267 199.042 92.74 199.389 92.18ZM206.084 95.86H201.364V95.22C202.018 95.22 202.471 95.1333 202.724 94.96C202.951 94.8 203.064 94.5333 203.064 94.16V83.74C203.064 83.3133 202.951 83.0067 202.724 82.82C202.458 82.6333 202.004 82.54 201.364 82.54V81.92H206.084V82.54C205.844 82.54 205.631 82.56 205.444 82.6C205.271 82.6267 205.118 82.66 204.984 82.7C204.731 82.7933 204.564 82.9267 204.484 83.1C204.404 83.26 204.364 83.4733 204.364 83.74V94.16C204.364 94.56 204.464 94.8267 204.664 94.96C204.931 95.1333 205.404 95.22 206.084 95.22V95.86ZM219.487 95.86H216.887C216.274 94.7267 215.661 93.6133 215.047 92.52C214.434 91.4133 213.821 90.2933 213.207 89.16H210.587V93.96C210.587 94.44 210.707 94.7667 210.947 94.94C211.254 95.1267 211.741 95.22 212.407 95.22V95.86H207.467V95.22C208.201 95.22 208.701 95.1267 208.967 94.94C209.207 94.74 209.327 94.42 209.327 93.98V83.74C209.327 83.3667 209.201 83.0867 208.947 82.9C208.694 82.7 208.201 82.6 207.467 82.6V81.92H213.627C216.681 81.92 218.207 83.1133 218.207 85.5C218.207 86.3533 218.001 87.0667 217.587 87.64C216.974 88.4533 215.967 88.94 214.567 89.1C215.074 89.9933 215.574 90.88 216.067 91.76C216.561 92.64 217.061 93.5267 217.567 94.42C217.741 94.7133 217.967 94.92 218.247 95.04C218.541 95.16 218.954 95.22 219.487 95.22V95.86ZM216.847 85.46C216.847 84.5933 216.561 83.9133 215.987 83.42C215.401 82.9133 214.621 82.66 213.647 82.66H211.887C211.394 82.66 211.061 82.74 210.887 82.9C210.687 83.0867 210.587 83.36 210.587 83.72V88.38H213.887C214.754 88.38 215.461 88.12 216.007 87.6C216.567 87.04 216.847 86.3267 216.847 85.46ZM233.559 95.86H228.579V95.18C229.179 95.18 229.612 95.14 229.879 95.06C230.159 94.98 230.332 94.86 230.399 94.7C230.412 94.6867 230.419 94.6467 230.419 94.58C230.419 94.5133 230.405 94.4467 230.379 94.38C230.352 94.3 230.325 94.22 230.299 94.14C230.245 94.0333 230.192 93.9267 230.139 93.82C230.099 93.7 230.052 93.58 229.999 93.46C229.852 93.02 229.699 92.5867 229.539 92.16C229.379 91.7333 229.225 91.3067 229.079 90.88H223.599C223.439 91.36 223.272 91.84 223.099 92.32C222.939 92.8 222.779 93.2867 222.619 93.78C222.552 93.9133 222.505 94.04 222.479 94.16C222.465 94.2667 222.459 94.3667 222.459 94.46C222.459 94.62 222.492 94.7333 222.559 94.8C222.679 95.0533 223.225 95.18 224.199 95.18V95.86H219.899V95.18C220.245 95.18 220.525 95.1333 220.739 95.04C220.965 94.96 221.172 94.8067 221.359 94.58C221.452 94.46 221.539 94.3067 221.619 94.12C221.699 93.9333 221.785 93.7267 221.879 93.5C221.959 93.2733 222.099 92.8667 222.299 92.28C222.512 91.6933 222.752 91.0133 223.019 90.24C223.285 89.4667 223.572 88.6533 223.879 87.8C224.185 86.9467 224.472 86.1333 224.739 85.36C225.005 84.5867 225.239 83.9067 225.439 83.32C225.652 82.7333 225.799 82.3267 225.879 82.1C226.052 82.0067 226.225 81.92 226.399 81.84C226.572 81.7467 226.745 81.6533 226.919 81.56C227.719 83.64 228.505 85.7 229.279 87.74C230.052 89.7667 230.839 91.82 231.639 93.9C231.812 94.3533 232.019 94.68 232.259 94.88C232.539 95.08 232.972 95.18 233.559 95.18V95.86ZM228.819 90.08C228.392 88.9467 227.959 87.8133 227.519 86.68C227.092 85.5467 226.665 84.4133 226.239 83.28C225.839 84.4133 225.439 85.5467 225.039 86.68C224.652 87.8133 224.259 88.9467 223.859 90.08H228.819Z" fill="#FBF4EF"/>
<path d="M110.632 116.602H107.146V116.126C107.566 116.126 107.869 116.098 108.056 116.042C108.252 115.986 108.373 115.902 108.42 115.79C108.429 115.781 108.434 115.753 108.434 115.706C108.434 115.659 108.425 115.613 108.406 115.566C108.387 115.51 108.369 115.454 108.35 115.398C108.313 115.323 108.275 115.249 108.238 115.174C108.21 115.09 108.177 115.006 108.14 114.922C108.037 114.614 107.93 114.311 107.818 114.012C107.706 113.713 107.599 113.415 107.496 113.116H103.66C103.548 113.452 103.431 113.788 103.31 114.124C103.198 114.46 103.086 114.801 102.974 115.146C102.927 115.239 102.895 115.328 102.876 115.412C102.867 115.487 102.862 115.557 102.862 115.622C102.862 115.734 102.885 115.813 102.932 115.86C103.016 116.037 103.399 116.126 104.08 116.126V116.602H101.07V116.126C101.313 116.126 101.509 116.093 101.658 116.028C101.817 115.972 101.961 115.865 102.092 115.706C102.157 115.622 102.218 115.515 102.274 115.384C102.33 115.253 102.391 115.109 102.456 114.95C102.512 114.791 102.61 114.507 102.75 114.096C102.899 113.685 103.067 113.209 103.254 112.668C103.441 112.127 103.641 111.557 103.856 110.96C104.071 110.363 104.271 109.793 104.458 109.252C104.645 108.711 104.808 108.235 104.948 107.824C105.097 107.413 105.2 107.129 105.256 106.97C105.377 106.905 105.499 106.844 105.62 106.788C105.741 106.723 105.863 106.657 105.984 106.592C106.544 108.048 107.095 109.49 107.636 110.918C108.177 112.337 108.728 113.774 109.288 115.23C109.409 115.547 109.554 115.776 109.722 115.916C109.918 116.056 110.221 116.126 110.632 116.126V116.602ZM107.314 112.556C107.015 111.763 106.712 110.969 106.404 110.176C106.105 109.383 105.807 108.589 105.508 107.796C105.228 108.589 104.948 109.383 104.668 110.176C104.397 110.969 104.122 111.763 103.842 112.556H107.314ZM119.275 113.872C119.275 114.749 118.953 115.431 118.309 115.916C117.711 116.373 116.904 116.602 115.887 116.602H111.057V116.126C111.561 116.126 111.892 116.075 112.051 115.972C112.219 115.823 112.303 115.613 112.303 115.342V108.16C112.303 108.039 112.284 107.945 112.247 107.88C112.209 107.759 112.153 107.656 112.079 107.572C111.883 107.404 111.542 107.32 111.057 107.32V106.844H115.649C116.713 106.844 117.511 107.04 118.043 107.432C118.584 107.833 118.855 108.417 118.855 109.182C118.855 109.658 118.677 110.101 118.323 110.512C118.164 110.689 117.982 110.848 117.777 110.988C117.581 111.119 117.361 111.231 117.119 111.324C117.697 111.492 118.159 111.735 118.505 112.052C119.018 112.509 119.275 113.116 119.275 113.872ZM117.889 109.168C117.889 108.888 117.833 108.631 117.721 108.398C117.618 108.165 117.473 107.969 117.287 107.81C117.1 107.651 116.871 107.535 116.601 107.46C116.33 107.385 116.036 107.348 115.719 107.348H114.207C113.964 107.348 113.768 107.376 113.619 107.432C113.339 107.563 113.199 107.801 113.199 108.146V111.142H115.733C115.91 111.142 116.083 111.128 116.251 111.1C116.596 111.035 116.913 110.876 117.203 110.624C117.66 110.251 117.889 109.765 117.889 109.168ZM118.309 113.872C118.309 113.247 118.094 112.724 117.665 112.304C117.217 111.884 116.643 111.674 115.943 111.674H113.199V115.328C113.199 115.692 113.334 115.925 113.605 116.028C113.745 116.075 113.945 116.098 114.207 116.098H115.859C116.568 116.098 117.147 115.916 117.595 115.552C118.071 115.151 118.309 114.591 118.309 113.872ZM128.732 111.73C128.732 113.279 128.307 114.521 127.458 115.454C126.655 116.378 125.666 116.84 124.49 116.84C123.314 116.84 122.329 116.378 121.536 115.454C120.687 114.521 120.262 113.279 120.262 111.73C120.262 110.181 120.687 108.939 121.536 108.006C122.329 107.082 123.314 106.62 124.49 106.62C125.666 106.62 126.655 107.082 127.458 108.006C128.307 108.939 128.732 110.181 128.732 111.73ZM127.752 111.73C127.752 111.086 127.673 110.493 127.514 109.952C127.355 109.411 127.113 108.916 126.786 108.468C126.151 107.609 125.386 107.18 124.49 107.18C123.613 107.18 122.852 107.614 122.208 108.482C121.555 109.359 121.228 110.442 121.228 111.73C121.228 112.999 121.555 114.077 122.208 114.964C122.861 115.841 123.622 116.28 124.49 116.28C125.386 116.28 126.147 115.841 126.772 114.964C127.425 114.115 127.752 113.037 127.752 111.73ZM138.682 112.626C138.178 112.626 137.847 112.691 137.688 112.822C137.557 112.934 137.492 113.153 137.492 113.48V116.588H136.862L136.652 116C136.017 116.551 135.168 116.826 134.104 116.826C132.816 116.826 131.785 116.369 131.01 115.454C130.235 114.521 129.848 113.289 129.848 111.758C129.848 110.274 130.259 109.051 131.08 108.09C131.911 107.119 132.933 106.634 134.146 106.634C134.37 106.634 134.585 106.648 134.79 106.676C135.005 106.704 135.215 106.741 135.42 106.788C135.523 106.825 135.616 106.858 135.7 106.886C135.793 106.914 135.887 106.947 135.98 106.984C136.139 106.937 136.297 106.891 136.456 106.844C136.615 106.788 136.773 106.732 136.932 106.676L137.898 109.196C137.842 109.233 137.781 109.266 137.716 109.294C137.66 109.313 137.604 109.336 137.548 109.364C137.371 109.065 137.184 108.795 136.988 108.552C136.792 108.309 136.573 108.09 136.33 107.894C135.733 107.409 135.033 107.166 134.23 107.166C133.754 107.166 133.32 107.292 132.928 107.544C132.536 107.787 132.181 108.095 131.864 108.468C131.164 109.327 130.814 110.386 130.814 111.646C130.814 113.009 131.136 114.115 131.78 114.964C132.079 115.337 132.429 115.65 132.83 115.902C133.231 116.145 133.661 116.266 134.118 116.266C134.445 116.266 134.748 116.229 135.028 116.154C135.308 116.079 135.569 115.972 135.812 115.832C135.989 115.711 136.134 115.589 136.246 115.468C136.367 115.347 136.456 115.211 136.512 115.062C136.568 114.894 136.596 114.726 136.596 114.558V113.494C136.596 113.167 136.521 112.943 136.372 112.822C136.185 112.691 135.817 112.626 135.266 112.626V112.136H138.682V112.626ZM148.681 116.602H145.195V116.126C145.615 116.126 145.918 116.098 146.105 116.042C146.301 115.986 146.422 115.902 146.469 115.79C146.478 115.781 146.483 115.753 146.483 115.706C146.483 115.659 146.473 115.613 146.455 115.566C146.436 115.51 146.417 115.454 146.399 115.398C146.361 115.323 146.324 115.249 146.287 115.174C146.259 115.09 146.226 115.006 146.189 114.922C146.086 114.614 145.979 114.311 145.867 114.012C145.755 113.713 145.647 113.415 145.545 113.116H141.709C141.597 113.452 141.48 113.788 141.359 114.124C141.247 114.46 141.135 114.801 141.023 115.146C140.976 115.239 140.943 115.328 140.925 115.412C140.915 115.487 140.911 115.557 140.911 115.622C140.911 115.734 140.934 115.813 140.981 115.86C141.065 116.037 141.447 116.126 142.129 116.126V116.602H139.119V116.126C139.361 116.126 139.557 116.093 139.707 116.028C139.865 115.972 140.01 115.865 140.141 115.706C140.206 115.622 140.267 115.515 140.323 115.384C140.379 115.253 140.439 115.109 140.505 114.95C140.561 114.791 140.659 114.507 140.799 114.096C140.948 113.685 141.116 113.209 141.303 112.668C141.489 112.127 141.69 111.557 141.905 110.96C142.119 110.363 142.32 109.793 142.507 109.252C142.693 108.711 142.857 108.235 142.997 107.824C143.146 107.413 143.249 107.129 143.305 106.97C143.426 106.905 143.547 106.844 143.669 106.788C143.79 106.723 143.911 106.657 144.033 106.592C144.593 108.048 145.143 109.49 145.685 110.918C146.226 112.337 146.777 113.774 147.337 115.23C147.458 115.547 147.603 115.776 147.771 115.916C147.967 116.056 148.27 116.126 148.681 116.126V116.602ZM145.363 112.556C145.064 111.763 144.761 110.969 144.453 110.176C144.154 109.383 143.855 108.589 143.557 107.796C143.277 108.589 142.997 109.383 142.717 110.176C142.446 110.969 142.171 111.763 141.891 112.556H145.363ZM157.562 111.716C157.562 113.228 157.142 114.432 156.302 115.328C155.462 116.177 154.356 116.602 152.984 116.602H149.092V116.14C149.549 116.14 149.871 116.07 150.058 115.93C150.216 115.79 150.296 115.571 150.296 115.272V108.118C150.296 107.838 150.212 107.633 150.044 107.502C149.857 107.371 149.54 107.306 149.092 107.306V106.844H152.984C154.421 106.844 155.541 107.273 156.344 108.132C157.156 109 157.562 110.195 157.562 111.716ZM156.582 111.716C156.582 110.353 156.255 109.275 155.602 108.482C154.967 107.754 154.132 107.376 153.096 107.348C153.058 107.339 153.021 107.334 152.984 107.334C152.946 107.334 152.904 107.334 152.858 107.334H152.368C152.33 107.334 152.293 107.334 152.256 107.334C152.218 107.334 152.181 107.339 152.144 107.348C151.78 107.348 151.528 107.409 151.388 107.53C151.257 107.642 151.192 107.791 151.192 107.978V115.258C151.192 115.538 151.257 115.757 151.388 115.916C151.425 115.953 151.467 115.981 151.514 116C151.57 116.009 151.63 116.023 151.696 116.042C151.761 116.061 151.831 116.075 151.906 116.084C151.98 116.093 152.06 116.103 152.144 116.112H152.858C152.904 116.112 152.946 116.112 152.984 116.112C153.021 116.112 153.058 116.107 153.096 116.098C154.132 116.079 154.962 115.701 155.588 114.964C156.25 114.161 156.582 113.079 156.582 111.716ZM167.164 111.73C167.164 113.279 166.739 114.521 165.89 115.454C165.087 116.378 164.098 116.84 162.922 116.84C161.746 116.84 160.761 116.378 159.968 115.454C159.118 114.521 158.694 113.279 158.694 111.73C158.694 110.181 159.118 108.939 159.968 108.006C160.761 107.082 161.746 106.62 162.922 106.62C164.098 106.62 165.087 107.082 165.89 108.006C166.739 108.939 167.164 110.181 167.164 111.73ZM166.184 111.73C166.184 111.086 166.104 110.493 165.946 109.952C165.787 109.411 165.544 108.916 165.218 108.468C164.583 107.609 163.818 107.18 162.922 107.18C162.044 107.18 161.284 107.614 160.64 108.482C159.986 109.359 159.66 110.442 159.66 111.73C159.66 112.999 159.986 114.077 160.64 114.964C161.293 115.841 162.054 116.28 162.922 116.28C163.818 116.28 164.578 115.841 165.204 114.964C165.857 114.115 166.184 113.037 166.184 111.73ZM175.252 114.096C175.252 114.955 174.962 115.622 174.384 116.098C173.833 116.593 173.086 116.84 172.144 116.84C171.826 116.84 171.481 116.803 171.108 116.728C170.734 116.653 170.384 116.546 170.058 116.406C169.899 116.453 169.74 116.504 169.582 116.56C169.432 116.616 169.292 116.681 169.162 116.756C168.994 116.308 168.821 115.869 168.644 115.44C168.476 115.011 168.308 114.572 168.14 114.124C168.205 114.087 168.266 114.054 168.322 114.026C168.378 113.989 168.438 113.956 168.504 113.928C168.961 114.665 169.404 115.193 169.834 115.51C169.974 115.622 170.137 115.725 170.324 115.818C170.52 115.911 170.72 115.991 170.926 116.056C171.131 116.131 171.336 116.187 171.542 116.224C171.747 116.261 171.934 116.28 172.102 116.28C172.456 116.28 172.774 116.233 173.054 116.14C173.334 116.047 173.567 115.916 173.754 115.748C174.146 115.384 174.342 114.903 174.342 114.306C174.342 114.082 174.29 113.863 174.188 113.648C174.085 113.424 173.95 113.242 173.782 113.102C173.408 112.803 172.676 112.467 171.584 112.094C170.716 111.786 170.03 111.427 169.526 111.016C168.854 110.503 168.518 109.877 168.518 109.14C168.518 108.384 168.788 107.777 169.33 107.32C169.852 106.863 170.534 106.634 171.374 106.634C171.775 106.634 172.167 106.69 172.55 106.802C172.652 106.839 172.75 106.877 172.844 106.914C172.946 106.951 173.04 106.989 173.124 107.026L173.964 106.746C174.132 107.175 174.3 107.6 174.468 108.02C174.636 108.44 174.804 108.865 174.972 109.294C174.869 109.341 174.766 109.392 174.664 109.448C174.272 108.776 173.824 108.244 173.32 107.852C172.713 107.404 172.06 107.18 171.36 107.18C171.117 107.18 170.893 107.217 170.688 107.292C170.482 107.357 170.296 107.446 170.128 107.558C169.894 107.717 169.712 107.917 169.582 108.16C169.451 108.403 169.386 108.687 169.386 109.014C169.386 109.546 169.661 109.989 170.212 110.344C170.492 110.512 170.762 110.657 171.024 110.778C171.285 110.89 171.621 111.011 172.032 111.142C172.601 111.329 173.082 111.52 173.474 111.716C173.866 111.912 174.178 112.103 174.412 112.29C174.972 112.738 175.252 113.34 175.252 114.096Z" fill="#FBF4EF"/>
<line x1="101" y1="124.5" x2="176" y2="124.527" stroke="#D6945C"/>
</svg>
